<svg width="24" height="24" viewBox="0 0 24 24" fill="none" xmlns="http://www.w3.org/2000/svg">
<path fill-rule="evenodd" clip-rule="evenodd" d="M3.28872 4.08785L3.36127 4.01204C5.28869 2.08444 6.54385 1.57351 7.88307 2.34362C8.2683 2.56515 8.62945 2.87523 9.12054 3.37401L10.6269 4.93603C11.4589 5.84393 11.6481 6.71478 11.3772 7.73465L11.3398 7.86967L11.2984 8.00392L11.097 8.59474C10.666 9.91972 10.846 10.6673 12.3795 12.2004C13.9742 13.7947 14.7186 13.9251 16.1457 13.4264L16.4001 13.338L16.7077 13.2381L16.8423 13.2007C17.9263 12.9115 18.842 13.1423 19.8132 14.1128L21.0269 15.2852L21.3842 15.6366C21.7803 16.0405 22.0421 16.3606 22.2355 16.6989C23.0008 18.0377 22.4893 19.2921 20.5063 21.2677L20.3177 21.4589C20.0216 21.7442 19.745 21.9486 19.3386 22.1416C18.6565 22.4655 17.8506 22.5876 16.9142 22.4573C14.6067 22.1364 11.6802 20.3158 7.97188 16.6085C7.67002 16.3067 7.3809 16.0107 7.10425 15.7205L6.56748 15.1476C1.53762 9.68285 1.09389 6.32588 3.15518 4.2205L3.28872 4.08785ZM7.90578 4.28093C7.57998 3.95974 7.34332 3.76394 7.13468 3.64396C6.67315 3.37856 6.17486 3.49075 5.25266 4.28448L4.96289 4.54335C4.91235 4.59 4.86065 4.63843 4.80774 4.68869L4.47547 5.01231L4.44553 5.04972L4.22027 5.27603C3.67592 5.83204 3.41807 6.51064 3.64027 7.67767C4.00487 9.59269 5.67378 12.1905 9.03177 15.5477C12.5306 19.0457 15.1965 20.7041 17.1202 20.9716C18.2416 21.1276 18.8136 20.856 19.3969 20.2584L19.8417 19.8095C20.0504 19.5912 20.2286 19.3933 20.3791 19.2126L20.5844 18.9539C21.1091 18.2551 21.157 17.8358 20.9326 17.4433C20.8472 17.2939 20.723 17.1302 20.5423 16.93L20.297 16.671L20.1519 16.5258L18.6206 15.0472C18.1089 14.5753 17.7592 14.5084 17.2283 14.65L17.0751 14.6941L16.4408 14.9094C14.6007 15.5037 13.2732 15.2155 11.3183 13.2612C9.29366 11.2371 9.05621 9.88537 9.73458 7.93918L9.7781 7.81411L9.89844 7.45154L9.95759 7.22043C10.0625 6.71746 9.94273 6.36678 9.40205 5.82601C9.37979 5.80375 9.35491 5.77866 9.32784 5.7512L7.90578 4.28093Z" fill="#AFAFAF"/>
</svg>
