<svg width="24" height="24" viewBox="0 0 24 24" fill="none" xmlns="http://www.w3.org/2000/svg">
<circle cx="12" cy="12" r="12" fill="#FF275B"/>
<path fill-rule="evenodd" clip-rule="evenodd" d="M17.2773 7.08396C17.3876 7.15752 17.4642 7.27189 17.4902 7.40191C17.5162 7.53193 17.4895 7.66696 17.416 7.77729L11.416 16.7773C11.3749 16.8388 11.3207 16.8904 11.2573 16.9284C11.1939 16.9665 11.1229 16.99 11.0493 16.9973C10.9757 17.0045 10.9014 16.9954 10.8318 16.9705C10.7622 16.9456 10.6989 16.9056 10.6466 16.8533L6.64665 12.8533C6.55833 12.7585 6.51024 12.6331 6.51253 12.5036C6.51481 12.3741 6.56729 12.2505 6.6589 12.1589C6.75051 12.0673 6.8741 12.0148 7.00363 12.0125C7.13316 12.0102 7.25853 12.0583 7.35331 12.1466L10.922 15.7153L16.584 7.22263C16.6575 7.1123 16.7719 7.03572 16.9019 7.00971C17.032 6.98371 17.167 7.01041 17.2773 7.08396Z" fill="white"/>
</svg>
