<svg width="29" height="24" viewBox="0 0 29 24" fill="none" xmlns="http://www.w3.org/2000/svg">
<path d="M28.3333 12.099C28.3333 12.7318 27.8631 13.2548 27.2529 13.3376L27.0833 13.349L2.08331 13.349C1.39296 13.349 0.833314 12.7894 0.833314 12.099C0.833314 11.4662 1.30357 10.9432 1.9137 10.8604L2.08331 10.849L27.0833 10.849C27.7737 10.849 28.3333 11.4086 28.3333 12.099Z" fill="#797983"/>
<path d="M13.0483 21.2539C13.5375 21.741 13.5392 22.5324 13.0521 23.0216C12.6093 23.4664 11.9149 23.5082 11.4248 23.1462L11.2843 23.0254L1.20101 12.9854C0.754948 12.5413 0.714369 11.8444 1.07929 11.3543L1.20094 11.2139L11.2843 1.17227C11.7734 0.685128 12.5649 0.686767 13.052 1.17593C13.4949 1.62063 13.5338 2.31515 13.1697 2.80375L13.0484 2.9437L3.85499 12.1002L13.0483 21.2539Z" fill="#797983"/>
</svg>
