<svg width="24" height="25" viewBox="0 0 24 25" fill="none" xmlns="http://www.w3.org/2000/svg">
<path fill-rule="evenodd" clip-rule="evenodd" d="M12 4.14191C7.313 4.14191 3.5 7.95491 3.5 12.6419C3.5 17.3289 7.313 21.1419 12 21.1419C16.687 21.1419 20.5 17.3289 20.5 12.6419C20.5 7.95491 16.687 4.14191 12 4.14191ZM12 22.6419C6.486 22.6419 2 18.1559 2 12.6419C2 7.12791 6.486 2.64191 12 2.64191C17.514 2.64191 22 7.12791 22 12.6419C22 18.1559 17.514 22.6419 12 22.6419Z" fill="#FFB24B"/>
<path fill-rule="evenodd" clip-rule="evenodd" d="M10.5586 16.8626C10.3666 16.8626 10.1736 16.7896 10.0276 16.6416C9.73558 16.3476 9.73658 15.8736 10.0296 15.5816L12.9816 12.6416L10.0296 9.70261C9.73658 9.41061 9.73558 8.93561 10.0276 8.64161C10.3196 8.34661 10.7936 8.34861 11.0876 8.63961L14.5736 12.1106C14.7146 12.2516 14.7936 12.4426 14.7936 12.6416C14.7936 12.8416 14.7146 13.0326 14.5736 13.1736L11.0876 16.6436C10.9416 16.7896 10.7496 16.8626 10.5586 16.8626Z" fill="#FFB24B"/>
</svg>
