<svg width="29" height="24" viewBox="0 0 29 24" fill="none" xmlns="http://www.w3.org/2000/svg">
<path d="M0.666687 12.1847C0.666687 11.5519 1.13694 11.0289 1.74707 10.9461L1.91669 10.9347L26.9167 10.9347C27.607 10.9347 28.1667 11.4943 28.1667 12.1847C28.1667 12.8175 27.6964 13.3405 27.0863 13.4233L26.9167 13.4347L1.91669 13.4347C1.22633 13.4347 0.666687 12.875 0.666687 12.1847Z" fill="#FF275B"/>
<path d="M15.9517 3.02982C15.4625 2.54272 15.4608 1.75127 15.9479 1.26206C16.3907 0.81733 17.0851 0.775492 17.5752 1.13753L17.7157 1.25826L27.799 11.2983C28.2451 11.7424 28.2856 12.4393 27.9207 12.9294L27.7991 13.0698L17.7157 23.1114C17.2266 23.5986 16.4351 23.5969 15.948 23.1078C15.5051 22.6631 15.4662 21.9685 15.8303 21.4799L15.9516 21.34L25.145 12.1835L15.9517 3.02982Z" fill="#FF275B"/>
</svg>
