<svg width="60" height="61" viewBox="0 0 60 61" fill="none" xmlns="http://www.w3.org/2000/svg">
<rect y="0.641846" width="60" height="60" rx="4" fill="#272939"/>
<path d="M28.4 21.0419C27.1792 21.0419 26.04 21.3827 25.0688 21.9763C24.9684 21.4393 24.7854 20.9212 24.5264 20.4403C25.7444 19.7662 27.1173 19.4216 28.5093 19.4407C29.9014 19.4597 31.2643 19.8417 32.4635 20.5488C33.6627 21.2559 34.6566 22.2637 35.347 23.4727C36.0373 24.6816 36.4003 26.0497 36.4 27.4419H40.4016C41.0378 27.4423 41.6478 27.6953 42.0976 28.1454C42.5473 28.5954 42.8 29.2056 42.8 29.8419V39.4419C42.8 40.0784 42.5471 40.6888 42.097 41.1389C41.6469 41.589 41.0365 41.8419 40.4 41.8419H30.8C30.1634 41.8419 29.553 41.589 29.1029 41.1389C28.6528 40.6888 28.4 40.0784 28.4 39.4419V35.4419C27.287 35.4433 26.186 35.2116 25.168 34.7619C25.1888 34.2179 25.2 33.6467 25.2 33.0419V32.9859C26.1408 33.5299 27.2336 33.8419 28.4 33.8419V29.8419C28.4 29.2053 28.6528 28.5949 29.1029 28.1448C29.553 27.6947 30.1634 27.4419 30.8 27.4419H34.8C34.8 25.7445 34.1257 24.1166 32.9254 22.9164C31.7252 21.7161 30.0973 21.0419 28.4 21.0419ZM36.24 29.0419C35.9252 30.5788 35.1661 31.9894 34.0568 33.0987C32.9475 34.208 31.5369 34.9671 30 35.2819V39.4419C30 39.654 30.0842 39.8575 30.2343 40.0075C30.3843 40.1576 30.5878 40.2419 30.8 40.2419H40.4C40.6121 40.2419 40.8156 40.1576 40.9656 40.0075C41.1157 39.8575 41.2 39.654 41.2 39.4419V29.8419C41.2 29.6297 41.1157 29.4262 40.9656 29.2762C40.8156 29.1261 40.6121 29.0419 40.4 29.0419H36.24ZM34.5984 29.0419H30.8C30.5878 29.0419 30.3843 29.1261 30.2343 29.2762C30.0842 29.4262 30 29.6297 30 29.8419V33.6403C31.1069 33.3535 32.1169 32.7759 32.9255 31.9674C33.734 31.1588 34.3116 30.1488 34.5984 29.0419ZM21.3296 18.0419C21.4624 18.158 21.553 18.3148 21.5875 18.4879C21.6219 18.6609 21.5982 18.8405 21.52 18.9987C21.5064 19.0455 21.4994 19.0939 21.4992 19.1427C21.4992 19.2435 21.5248 19.4355 21.7664 19.6755C21.8832 19.7923 21.9728 19.8755 22.0704 19.9667C22.1504 20.0403 22.2352 20.1171 22.3424 20.2227C22.5504 20.4211 22.7696 20.6547 22.9664 20.9475C23.3744 21.5603 23.6 22.3267 23.6 23.4419C23.6 24.8067 23.0944 25.9699 22.3056 26.6835L22.408 26.8019C22.856 27.3523 23.1168 28.0659 23.28 28.7699C23.6 30.1619 23.6 31.8355 23.6 33.0019V33.0419C23.6 37.5011 22.9936 40.0307 22.3264 41.4771C21.9904 42.2051 21.6336 42.6691 21.3248 42.9603C21.1992 43.0807 21.0608 43.1869 20.912 43.2771C20.8438 43.3181 20.7727 43.3539 20.6992 43.3843C20.6992 43.3843 20.5184 43.4419 20.4 43.4419C20.2816 43.4419 20.1008 43.3843 20.1008 43.3843C20.0264 43.3557 19.9551 43.3198 19.888 43.2771C19.7391 43.1869 19.6007 43.0807 19.4752 42.9603C19.1664 42.6675 18.8096 42.2051 18.4736 41.4771C17.8064 40.0307 17.2 37.5011 17.2 33.0419V33.0019C17.2 31.8339 17.2 30.1619 17.52 28.7699C17.6832 28.0659 17.944 27.3523 18.392 26.8019C18.424 26.7619 18.4592 26.7219 18.4944 26.6835C17.7056 25.9699 17.2 24.8067 17.2 23.4419C17.2 22.9203 17.3392 22.2979 17.5312 21.7235C17.7232 21.1475 17.992 20.5523 18.3024 20.0723C18.672 19.4483 19.192 18.9251 19.5952 18.5731C19.8162 18.3786 20.0469 18.1955 20.2864 18.0243L20.3344 17.9923L20.3488 17.9811L20.3536 17.9779L20.3568 17.9763C20.5035 17.8785 20.6784 17.8319 20.8543 17.8437C21.0302 17.8556 21.1973 17.9252 21.3296 18.0419ZM20.4 25.8419C21.0192 25.8403 22 25.1539 22 23.4419C22 22.5571 21.8256 22.1235 21.6336 21.8355C21.5168 21.6672 21.3822 21.5122 21.232 21.3731L21.0336 21.1875C20.904 21.0659 20.752 20.9251 20.6336 20.8083C20.4586 20.6351 20.3083 20.4386 20.1872 20.2243C19.9835 20.4384 19.8043 20.6745 19.6528 20.9283C19.4288 21.2723 19.2112 21.7443 19.0496 22.2307C18.8832 22.7267 18.8 23.1651 18.8 23.4419C18.8 25.1571 19.784 25.8419 20.4 25.8419H20.4032H20.4ZM19.632 27.8131C19.4048 28.0899 19.216 28.5315 19.0784 29.1299C18.8032 30.3267 18.8 31.8307 18.8 33.0419C18.8 37.3827 19.3936 39.6531 19.9264 40.8067C20.1024 41.1859 20.2672 41.4387 20.4 41.6067C20.589 41.3597 20.748 41.0912 20.8736 40.8067C21.4064 39.6531 22 37.3827 22 33.0419C22 31.8307 21.9968 30.3267 21.72 29.1299C21.5824 28.5315 21.3936 28.0899 21.168 27.8131C21.0797 27.6935 20.9637 27.5972 20.8298 27.5325C20.696 27.4678 20.5485 27.4367 20.4 27.4419H20.3968C20.2487 27.4371 20.1018 27.4684 19.9685 27.5331C19.8353 27.5977 19.7198 27.6938 19.632 27.8131Z" fill="white"/>
</svg>
