<svg width="20" height="20" viewBox="0 0 20 20" fill="none" xmlns="http://www.w3.org/2000/svg">
<path d="M3.33337 9.77142C3.33337 9.45501 3.5685 9.19351 3.87357 9.15213L3.95837 9.14642H16.4584C16.8036 9.14642 17.0834 9.42625 17.0834 9.77142C17.0834 10.0878 16.8482 10.3493 16.5432 10.3907L16.4584 10.3964H3.95837C3.6132 10.3964 3.33337 10.1166 3.33337 9.77142Z" fill="white"/>
<path d="M10.9759 5.19399C10.7313 4.95044 10.7304 4.55471 10.974 4.31011C11.1954 4.08774 11.5426 4.06682 11.7876 4.24784L11.8579 4.3082L16.8995 9.32821C17.1226 9.55028 17.1428 9.8987 16.9604 10.1438L16.8996 10.214L11.8579 15.2348C11.6133 15.4784 11.2176 15.4775 10.974 15.233C10.7526 15.0106 10.7331 14.6633 10.9152 14.419L10.9758 14.3491L15.5725 9.77085L10.9759 5.19399Z" fill="white"/>
</svg>
