<svg width="25" height="25" viewBox="0 0 25 25" fill="none" xmlns="http://www.w3.org/2000/svg">
<path d="M17.4108 5.48002C17.1735 5.48002 16.9415 5.5504 16.7441 5.68226C16.5468 5.81411 16.393 6.00153 16.3021 6.2208C16.2113 6.44007 16.1876 6.68135 16.2339 6.91413C16.2802 7.1469 16.3945 7.36072 16.5623 7.52855C16.7301 7.69637 16.9439 7.81066 17.1767 7.85696C17.4095 7.90326 17.6508 7.8795 17.87 7.78867C18.0893 7.69785 18.2767 7.54404 18.4086 7.3467C18.5404 7.14936 18.6108 6.91736 18.6108 6.68002C18.6108 6.36176 18.4844 6.05654 18.2593 5.83149C18.0343 5.60645 17.7291 5.48002 17.4108 5.48002ZM22.0108 7.90002C21.9914 7.07032 21.836 6.24942 21.5508 5.47002C21.2965 4.80315 20.9008 4.1993 20.3908 3.70002C19.8956 3.18745 19.2904 2.7942 18.6208 2.55002C17.8435 2.25618 17.0216 2.09723 16.1908 2.08002C15.1308 2.02002 14.7908 2.02002 12.0708 2.02002C9.3508 2.02002 9.0108 2.02002 7.9508 2.08002C7.11995 2.09723 6.29814 2.25618 5.5208 2.55002C4.85248 2.79667 4.24773 3.18958 3.7508 3.70002C3.23823 4.1952 2.84498 4.80046 2.6008 5.47002C2.30696 6.24736 2.14801 7.06917 2.1308 7.90002C2.0708 8.96002 2.0708 9.30002 2.0708 12.02C2.0708 14.74 2.0708 15.08 2.1308 16.14C2.14801 16.9709 2.30696 17.7927 2.6008 18.57C2.84498 19.2396 3.23823 19.8448 3.7508 20.34C4.24773 20.8505 4.85248 21.2434 5.5208 21.49C6.29814 21.7839 7.11995 21.9428 7.9508 21.96C9.0108 22.02 9.3508 22.02 12.0708 22.02C14.7908 22.02 15.1308 22.02 16.1908 21.96C17.0216 21.9428 17.8435 21.7839 18.6208 21.49C19.2904 21.2458 19.8956 20.8526 20.3908 20.34C20.903 19.8426 21.2991 19.2382 21.5508 18.57C21.836 17.7906 21.9914 16.9697 22.0108 16.14C22.0108 15.08 22.0708 14.74 22.0708 12.02C22.0708 9.30002 22.0708 8.96002 22.0108 7.90002ZM20.2108 16.02C20.2035 16.6548 20.0886 17.2837 19.8708 17.88C19.7111 18.3152 19.4547 18.7084 19.1208 19.03C18.7964 19.3605 18.404 19.6165 17.9708 19.78C17.3745 19.9978 16.7456 20.1127 16.1108 20.12C15.1108 20.17 14.7408 20.18 12.1108 20.18C9.4808 20.18 9.1108 20.18 8.1108 20.12C7.45169 20.1324 6.7954 20.0309 6.1708 19.82C5.75658 19.6481 5.38216 19.3928 5.0708 19.07C4.73889 18.7488 4.48564 18.3552 4.3308 17.92C4.08666 17.3152 3.95124 16.672 3.9308 16.02C3.9308 15.02 3.8708 14.65 3.8708 12.02C3.8708 9.39002 3.8708 9.02002 3.9308 8.02002C3.93528 7.37108 4.05375 6.72796 4.2808 6.12002C4.45685 5.69793 4.72707 5.32168 5.0708 5.02002C5.37461 4.67619 5.75009 4.40312 6.1708 4.22002C6.78035 4.00006 7.4228 3.8851 8.0708 3.88002C9.0708 3.88002 9.4408 3.82002 12.0708 3.82002C14.7008 3.82002 15.0708 3.82002 16.0708 3.88002C16.7056 3.8873 17.3345 4.00227 17.9308 4.22002C18.3852 4.38867 18.7931 4.66287 19.1208 5.02002C19.4485 5.3272 19.7046 5.70275 19.8708 6.12002C20.0931 6.72895 20.2081 7.3718 20.2108 8.02002C20.2608 9.02002 20.2708 9.39002 20.2708 12.02C20.2708 14.65 20.2608 15.02 20.2108 16.02ZM12.0708 6.89002C11.0566 6.892 10.0658 7.19455 9.22346 7.75944C8.38115 8.32433 7.72518 9.12622 7.33843 10.0638C6.95169 11.0013 6.85152 12.0325 7.05059 13.0269C7.24966 14.0214 7.73904 14.9346 8.45688 15.651C9.17472 16.3674 10.0888 16.855 11.0837 17.0522C12.0785 17.2493 13.1095 17.1471 14.0463 16.7586C14.9831 16.37 15.7837 15.7125 16.3469 14.8691C16.9102 14.0256 17.2108 13.0342 17.2108 12.02C17.2121 11.3451 17.08 10.6766 16.822 10.053C16.5641 9.42933 16.1854 8.86283 15.7077 8.38607C15.23 7.90931 14.6627 7.5317 14.0386 7.27495C13.4144 7.0182 12.7457 6.88738 12.0708 6.89002ZM12.0708 15.35C11.4122 15.35 10.7684 15.1547 10.2208 14.7888C9.67314 14.4229 9.24632 13.9028 8.99428 13.2944C8.74224 12.6859 8.6763 12.0163 8.80479 11.3704C8.93327 10.7244 9.25043 10.1311 9.71614 9.66535C10.1818 9.19965 10.7752 8.88249 11.4212 8.754C12.0671 8.62552 12.7367 8.69146 13.3451 8.9435C13.9536 9.19554 14.4737 9.62235 14.8396 10.17C15.2055 10.7176 15.4008 11.3614 15.4008 12.02C15.4008 12.4573 15.3147 12.8903 15.1473 13.2944C14.98 13.6984 14.7347 14.0655 14.4255 14.3747C14.1162 14.6839 13.7492 14.9292 13.3451 15.0965C12.9411 15.2639 12.5081 15.35 12.0708 15.35Z" fill="white"/>
</svg>
