<svg width="25" height="25" viewBox="0 0 25 25" fill="none" xmlns="http://www.w3.org/2000/svg">
<path d="M22.0708 5.81999C21.3191 6.14608 20.5242 6.36165 19.7108 6.45999C20.569 5.94731 21.2121 5.14077 21.5208 4.18999C20.7144 4.67005 19.8316 5.00828 18.9108 5.18999C18.2953 4.52256 17.4758 4.07828 16.5806 3.92684C15.6855 3.77539 14.7653 3.92534 13.9646 4.35317C13.1638 4.78101 12.5277 5.46252 12.156 6.29082C11.7843 7.11913 11.6981 8.04737 11.9108 8.92998C10.2802 8.84751 8.68524 8.42294 7.22946 7.68385C5.77367 6.94476 4.48965 5.90768 3.4608 4.63998C3.09994 5.27015 2.91032 5.98381 2.9108 6.70999C2.90952 7.38437 3.07502 8.0486 3.39256 8.64355C3.71009 9.2385 4.16982 9.7457 4.7308 10.12C4.07878 10.1022 3.44069 9.92728 2.8708 9.60998V9.65999C2.87569 10.6049 3.20679 11.5191 3.80812 12.248C4.40944 12.9768 5.24406 13.4756 6.1708 13.66C5.81406 13.7686 5.44368 13.8258 5.0708 13.83C4.81269 13.827 4.55522 13.8036 4.3008 13.76C4.56471 14.5728 5.07542 15.2831 5.76188 15.7921C6.44833 16.3012 7.27638 16.5835 8.1308 16.6C6.688 17.7353 4.90668 18.3548 3.0708 18.36C2.73654 18.3611 2.40254 18.341 2.0708 18.3C3.94523 19.5102 6.12961 20.1527 8.3608 20.15C9.90049 20.166 11.4279 19.875 12.8539 19.2941C14.2799 18.7131 15.5758 17.8539 16.666 16.7665C17.7562 15.6791 18.6188 14.3854 19.2034 12.9609C19.788 11.5364 20.0828 10.0097 20.0708 8.46998C20.0708 8.29998 20.0708 8.11998 20.0708 7.93998C20.8555 7.3548 21.5323 6.63741 22.0708 5.81999Z" fill="white"/>
</svg>
