<svg width="114" height="32" viewBox="0 0 114 32" fill="none" xmlns="http://www.w3.org/2000/svg">
<path d="M27.4333 27.1928C30.2584 24.3074 32 20.3571 32 16C32 7.16347 24.8365 0 16 0C7.16347 0 0 7.16347 0 16C0 20.3571 1.74171 24.3074 4.56676 27.1928L11.4996 7.08736C12.1617 5.16726 13.969 3.87879 16 3.87879C18.031 3.87879 19.8383 5.16726 20.5004 7.08736L27.4333 27.1928Z" fill="url(#paint0_linear_20_55)"/>
<path d="M23.5694 30.0998L16.457 10.0178C16.3046 9.58712 15.6954 9.58712 15.543 10.0178L8.43063 30.0998C10.6842 31.3121 13.2617 32 16 32C18.7383 32 21.3158 31.3121 23.5694 30.0998Z" fill="url(#paint1_linear_20_55)"/>
<path d="M43.6851 22.7317H40L46.7095 4H50.9716L57.6905 22.7317H54.0054L48.915 7.84146H48.7661L43.6851 22.7317ZM43.8061 15.3872H53.8565V18.1128H43.8061V15.3872Z" fill="white"/>
<path d="M63.4206 14.5V22.7317H60.0519V8.68293H63.2717V11.0701H63.4392C63.768 10.2835 64.2923 9.65854 65.0119 9.19512C65.7378 8.73171 66.6342 8.5 67.7013 8.5C68.6877 8.5 69.547 8.70732 70.279 9.12195C71.0173 9.53658 71.5881 10.1372 71.9913 10.9238C72.4008 11.7104 72.6024 12.6646 72.5962 13.7866V22.7317H69.2275V14.2988C69.2275 13.3598 68.9793 12.625 68.483 12.0945C67.9929 11.564 67.3136 11.2988 66.445 11.2988C65.8556 11.2988 65.3314 11.4268 64.8723 11.6829C64.4194 11.9329 64.0627 12.2957 63.8021 12.7713C63.5478 13.247 63.4206 13.8232 63.4206 14.5Z" fill="white"/>
<path d="M83.1584 8.68293V11.2439H74.9413V8.68293H83.1584ZM76.97 5.31707H80.3387V18.5061C80.3387 18.9512 80.407 19.2927 80.5434 19.5305C80.6861 19.7622 80.8722 19.9207 81.1018 20.0061C81.3313 20.0915 81.5857 20.1341 81.8649 20.1341C82.0758 20.1341 82.2681 20.1189 82.4418 20.0884C82.6218 20.0579 82.7582 20.0305 82.8513 20.0061L83.419 22.5945C83.239 22.6555 82.9816 22.7226 82.6466 22.7957C82.3178 22.8689 81.9145 22.9116 81.4368 22.9238C80.5931 22.9482 79.8331 22.8232 79.1569 22.5488C78.4806 22.2683 77.944 21.8354 77.5469 21.25C77.1561 20.6646 76.9638 19.9329 76.97 19.0549V5.31707Z" fill="white"/>
<path d="M92.0572 23.0061C90.6302 23.0061 89.405 22.6982 88.3813 22.0823C87.3639 21.4665 86.5791 20.6159 86.0269 19.5305C85.481 18.439 85.208 17.1829 85.208 15.7622C85.208 14.3354 85.4872 13.0762 86.0455 11.9848C86.6039 10.8872 87.3918 10.0335 88.4092 9.42378C89.4329 8.80793 90.6427 8.5 92.0385 8.5C93.1987 8.5 94.2254 8.71037 95.1188 9.1311C96.0184 9.54573 96.7349 10.1341 97.2684 10.8963C97.802 11.6524 98.106 12.5366 98.1804 13.5488H94.9606C94.8303 12.872 94.5201 12.3079 94.03 11.8567C93.5461 11.3994 92.8978 11.1707 92.0851 11.1707C91.3964 11.1707 90.7915 11.3537 90.2704 11.7195C89.7493 12.0793 89.3429 12.5976 89.0513 13.2744C88.766 13.9512 88.6233 14.7622 88.6233 15.7073C88.6233 16.6646 88.766 17.4878 89.0513 18.1768C89.3367 18.8598 89.7369 19.3872 90.2518 19.7591C90.7729 20.125 91.384 20.3079 92.0851 20.3079C92.5814 20.3079 93.025 20.2165 93.4158 20.0335C93.8129 19.8445 94.1448 19.5732 94.4115 19.2195C94.6783 18.8659 94.8613 18.436 94.9606 17.9299H98.1804C98.0998 18.9238 97.802 19.8049 97.2871 20.5732C96.7721 21.3354 96.0711 21.9329 95.1839 22.3659C94.2968 22.7927 93.2545 23.0061 92.0572 23.0061Z" fill="white"/>
<path d="M103.04 28C102.581 28 102.156 27.9634 101.766 27.8902C101.381 27.8232 101.074 27.7439 100.844 27.6524L101.626 25.0732C102.116 25.2134 102.553 25.2805 102.938 25.2744C103.323 25.2683 103.661 25.1494 103.952 24.9177C104.25 24.6921 104.501 24.314 104.706 23.7835L104.995 23.0244L99.8113 8.68293H103.385L106.679 19.2927H106.828L110.132 8.68293H113.714L107.991 24.4329C107.724 25.1768 107.371 25.814 106.93 26.3445C106.49 26.8811 105.95 27.2896 105.311 27.5701C104.678 27.8567 103.921 28 103.04 28Z" fill="white"/>
<defs>
<linearGradient id="paint0_linear_20_55" x1="32" y1="0" x2="3.8147e-06" y2="32" gradientUnits="userSpaceOnUse">
<stop stop-color="#F7AE48"/>
<stop offset="0.71875" stop-color="#FE4167"/>
</linearGradient>
<linearGradient id="paint1_linear_20_55" x1="32" y1="0" x2="3.8147e-06" y2="32" gradientUnits="userSpaceOnUse">
<stop stop-color="#F7AE48"/>
<stop offset="0.71875" stop-color="#FE4167"/>
</linearGradient>
</defs>
</svg>
