<svg width="32" height="32" viewBox="0 0 32 32" fill="none" xmlns="http://www.w3.org/2000/svg">
<path d="M27.4333 27.1928C30.2584 24.3074 32 20.3571 32 16C32 7.16347 24.8365 0 16 0C7.16347 0 0 7.16347 0 16C0 20.3571 1.74171 24.3074 4.56676 27.1928L11.4996 7.08736C12.1617 5.16726 13.969 3.87879 16 3.87879C18.031 3.87879 19.8383 5.16726 20.5004 7.08736L27.4333 27.1928Z" fill="url(#paint0_linear_20_53)"/>
<path d="M23.5694 30.0998L16.457 10.0178C16.3046 9.58712 15.6954 9.58712 15.543 10.0178L8.43063 30.0998C10.6842 31.3121 13.2617 32 16 32C18.7383 32 21.3158 31.3121 23.5694 30.0998Z" fill="url(#paint1_linear_20_53)"/>
<defs>
<linearGradient id="paint0_linear_20_53" x1="32" y1="0" x2="3.8147e-06" y2="32" gradientUnits="userSpaceOnUse">
<stop stop-color="#F7AE48"/>
<stop offset="0.71875" stop-color="#FE4167"/>
</linearGradient>
<linearGradient id="paint1_linear_20_53" x1="32" y1="0" x2="3.8147e-06" y2="32" gradientUnits="userSpaceOnUse">
<stop stop-color="#F7AE48"/>
<stop offset="0.71875" stop-color="#FE4167"/>
</linearGradient>
</defs>
</svg>
