<svg width="104" height="104" viewBox="0 0 104 104" fill="none" xmlns="http://www.w3.org/2000/svg">
<g clip-path="url(#clip0_58_50)">
<path d="M19.1357 43.6612C21.3668 41.43 24.2915 39.8925 27.7593 39.1989C33.8008 37.9873 37.9706 33.8176 39.1822 27.776C40.5694 20.8404 45.3407 16.069 52.2764 14.6819C58.3179 13.4702 62.4876 9.30049 63.6993 3.25897C63.8163 2.69075 64.3761 2.31471 64.9527 2.42335C65.5293 2.53198 65.897 3.1002 65.7883 3.67678C64.4012 10.6124 59.6298 15.3838 52.6942 16.7709C46.6443 17.9909 42.4829 22.1523 41.2713 28.1938C39.8841 35.1295 35.1128 39.9009 28.1771 41.288C22.1356 42.4996 17.9659 46.6694 16.7542 52.7109C15.3671 59.6298 10.5957 64.4012 3.66005 65.7884C3.08348 65.897 2.52361 65.5377 2.40662 64.9527C2.29799 64.3762 2.67402 63.8163 3.2506 63.7077C9.29213 62.496 13.4619 58.3263 14.6735 52.2847C15.3671 48.8169 16.9046 45.8923 19.1357 43.6612Z" fill="#333444"/>
<path d="M31.0015 55.5271C33.2326 53.296 36.1573 51.7584 39.6251 51.0649C45.6666 49.8532 49.8364 45.6835 51.048 39.6419C52.4351 32.7063 57.2065 27.9349 64.1422 26.5478C70.1837 25.3362 74.3534 21.1664 75.5651 15.1249C75.6821 14.5567 76.2419 14.1806 76.8185 14.2893C77.3951 14.3979 77.7627 14.9661 77.6541 15.5427C76.267 22.4783 71.4956 27.2497 64.56 28.6368C58.5101 29.8568 54.3487 34.0182 53.1371 40.0598C51.7499 46.9954 46.9785 51.7668 40.0429 53.1539C34.0014 54.3656 29.8316 58.5353 28.62 64.5768C27.2329 71.5125 22.4531 76.2755 15.5258 77.671C14.9493 77.7796 14.3894 77.4203 14.2724 76.8354C14.1638 76.2588 14.5314 75.7073 15.108 75.5819C21.1495 74.3703 25.3193 70.2005 26.5309 64.159C27.2329 60.6828 28.7704 57.7582 31.0015 55.5271Z" fill="#333444"/>
<path d="M42.8672 67.3928C45.0983 65.1617 48.023 63.6241 51.4908 62.9306C57.5323 61.7189 61.7021 57.5492 62.9137 51.5077C64.3092 44.5804 69.0806 39.809 76.0079 38.4135C82.0494 37.2019 86.2191 33.0321 87.4308 26.9906C87.5478 26.4224 88.1076 26.0464 88.6842 26.155C89.2608 26.2636 89.6285 26.8318 89.5198 27.4084C88.1327 34.3441 83.3613 39.1154 76.4257 40.5026C70.3758 41.7226 66.2144 45.884 65.0028 51.9255C63.6156 58.8611 58.8443 63.6325 51.9086 65.0196C45.8671 66.2313 41.6974 70.401 40.4857 76.4425C39.0986 83.3782 34.3188 88.1412 27.3916 89.5367C26.815 89.6453 26.2551 89.286 26.1381 88.7011C26.0295 88.1245 26.3972 87.573 26.9737 87.4476C33.0153 86.236 37.185 82.0663 38.3967 76.0247C39.0986 72.5486 40.6361 69.6239 42.8672 67.3928Z" fill="#333444"/>
<path d="M54.7414 79.2669C56.9725 77.0358 59.8971 75.4983 63.365 74.8047C69.4065 73.5931 73.5762 69.4233 74.7879 63.3818C76.1834 56.4545 80.9547 51.6831 87.882 50.2877C93.9235 49.076 98.0933 44.9063 99.3049 38.8647C99.4219 38.2965 99.9818 37.9205 100.558 38.0291C101.135 38.1378 101.503 38.706 101.394 39.2826C100.007 46.2182 95.2355 50.9896 88.2998 52.3767C82.2499 53.5967 78.0886 57.7581 76.8769 63.7996C75.4898 70.7353 70.7184 75.5066 63.7828 76.8938C57.7412 78.1054 53.5715 82.2752 52.3599 88.3167C50.9727 95.2523 46.193 100.015 39.2657 101.411C38.6891 101.519 38.1293 101.16 38.0123 100.575C37.9036 99.9986 38.2713 99.4471 38.8479 99.3218C44.8894 98.1101 49.0592 93.9404 50.2708 87.8989C50.9727 84.4227 52.5103 81.498 54.7414 79.2669Z" fill="#333444"/>
</g>
<defs>
<clipPath id="clip0_58_50">
<rect width="88.8081" height="58" fill="white" transform="translate(0 62.7969) rotate(-45)"/>
</clipPath>
</defs>
</svg>
